<svg width="27" height="32" viewBox="0 0 27 32" fill="none" xmlns="http://www.w3.org/2000/svg">
<path d="M22.0149 16.3967C22.0011 13.8539 23.1512 11.9347 25.4792 10.5213C24.1767 8.65749 22.2089 7.63206 19.6107 7.43113C17.1511 7.23713 14.4628 8.86535 13.4789 8.86535C12.4396 8.86535 10.0562 7.50042 8.18549 7.50042C4.31934 7.56278 0.210693 10.5836 0.210693 16.7293C0.210693 18.5446 0.543265 20.4199 1.20841 22.3553C2.09527 24.8981 5.29627 31.1338 8.63585 31.0299C10.3819 30.9883 11.6151 29.7897 13.8877 29.7897C16.091 29.7897 17.2342 31.0299 19.1811 31.0299C22.5484 30.9814 25.4446 25.3138 26.2899 22.7641C21.7724 20.637 22.0149 16.5284 22.0149 16.3967ZM18.0934 5.01999C19.9849 2.77513 19.8116 0.731195 19.7562 -0.00323486C18.0864 0.0937653 16.1534 1.13305 15.0517 2.41484C13.8392 3.7867 13.1256 5.4842 13.278 7.39649C15.0864 7.53506 16.7354 6.60663 18.0934 5.01999Z" fill="white"/>
</svg>
