<svg width="45" height="46" viewBox="0 0 45 46" fill="none" xmlns="http://www.w3.org/2000/svg">
<path d="M39.2582 36.2158V23.1817C37.3962 12.0096 26.2241 6.42358 26.2241 6.42358L22.3139 9.2166C22.5034 9.93915 22.4712 10.702 22.2216 11.406C21.9719 12.1101 21.5163 12.7227 20.9139 13.1645C20.3116 13.6062 19.5903 13.8566 18.8437 13.8831C18.0972 13.9096 17.36 13.711 16.7278 13.313L5.74194 21.3197L5.74194 38.0778C5.74194 39.195 6.48675 39.9398 7.60396 39.9398H13.19C13.19 38.9521 13.5823 38.0049 14.2807 37.3065C14.9791 36.6081 15.9263 36.2158 16.914 36.2158C17.9017 36.2158 18.8489 36.6081 19.5473 37.3065C20.2457 38.0049 20.638 38.9521 20.638 39.9398H35.5341M16.914 23.1817H5.74194" stroke="#FFFEFA" stroke-width="3.72403" stroke-linecap="round" stroke-linejoin="round"/>
<path d="M28.0861 23.1817C28.0861 21.6921 25.6655 20.3887 22.5001 20.3887C19.3347 20.3887 16.9141 21.6921 16.9141 23.1817C16.9141 24.6632 17.5026 26.084 18.5502 27.1316C19.5978 28.1792 21.0186 28.7677 22.5001 28.7677C23.9816 28.7677 25.4024 28.1792 26.45 27.1316C27.4976 26.084 28.0861 24.6632 28.0861 23.1817ZM28.0861 23.1817H39.2582" stroke="#FFFEFA" stroke-width="3.72403" stroke-linecap="round" stroke-linejoin="round"/>
<path d="M35.5341 39.9398C37.5908 39.9398 39.2581 38.2724 39.2581 36.2157C39.2581 34.159 37.5908 32.4917 35.5341 32.4917C33.4774 32.4917 31.8101 34.159 31.8101 36.2157C31.8101 38.2724 33.4774 39.9398 35.5341 39.9398Z" stroke="#FFFEFA" stroke-width="3.72403" stroke-linecap="round" stroke-linejoin="round"/>
</svg>
