<svg width="43" height="50" viewBox="0 0 43 50" fill="none" xmlns="http://www.w3.org/2000/svg">
<g clip-path="url(#clip0_55_145)">
<path d="M43 20.1467C38.7729 20.1557 34.6498 18.8362 31.2134 16.3746V33.5362C31.2124 36.7146 30.241 39.8169 28.4291 42.4283C26.6172 45.0396 24.0511 47.0355 21.0741 48.149C18.0971 49.2625 14.8511 49.4405 11.7702 48.6591C8.68935 47.8778 5.92047 46.1744 3.8339 43.7768C1.74734 41.3792 0.442568 38.4017 0.0940957 35.2424C-0.254376 32.0831 0.370063 28.8928 1.8839 26.0981C3.39774 23.3033 5.7288 21.0374 8.56532 19.6034C11.4018 18.1694 14.6086 17.6356 17.7567 18.0734V26.7022C16.3172 26.2491 14.7714 26.2624 13.3399 26.7401C11.9084 27.2179 10.6644 28.1357 9.78567 29.3626C8.90689 30.5894 8.43821 32.0626 8.44655 33.5717C8.45489 35.0808 8.93983 36.5486 9.83212 37.7657C10.7244 38.9828 11.9784 39.8868 13.4151 40.3487C14.8518 40.8106 16.3977 40.8068 17.8321 40.3378C19.2665 39.8687 20.516 38.9585 21.4022 37.737C22.2885 36.5155 22.7661 35.0453 22.767 33.5362V0H31.2134C31.2086 0.714361 31.2697 1.42764 31.3958 2.1308C31.6895 3.69819 32.2998 5.18922 33.1893 6.51277C34.0788 7.83631 35.2289 8.96456 36.5692 9.82857C38.4771 11.0887 40.7136 11.7596 43 11.7578V20.1467Z" fill="#FFFEFA"/>
</g>
<defs>
<clipPath id="clip0_55_145">
<rect width="43" height="49.1429" fill="white"/>
</clipPath>
</defs>
</svg>
