<svg width="73" height="73" viewBox="0 0 73 73" fill="none" xmlns="http://www.w3.org/2000/svg">
<rect width="73" height="73" rx="11" fill="#DD6B12"/>
<g clip-path="url(#clip0_2_21)">
<path d="M58 32.1467C53.7729 32.1557 49.6498 30.8362 46.2134 28.3746V45.5362C46.2124 48.7146 45.241 51.8169 43.4291 54.4283C41.6172 57.0396 39.0511 59.0355 36.0741 60.149C33.0971 61.2625 29.8511 61.4405 26.7702 60.6591C23.6893 59.8778 20.9205 58.1744 18.8339 55.7768C16.7473 53.3792 15.4426 50.4017 15.0941 47.2424C14.7456 44.0832 15.3701 40.8928 16.8839 38.0981C18.3977 35.3033 20.7288 33.0374 23.5653 31.6034C26.4018 30.1694 29.6086 29.6356 32.7567 30.0734V38.7022C31.3172 38.2491 29.7714 38.2624 28.3399 38.7401C26.9084 39.2179 25.6644 40.1357 24.7857 41.3626C23.9069 42.5894 23.4382 44.0626 23.4466 45.5717C23.4549 47.0808 23.9398 48.5486 24.8321 49.7657C25.7244 50.9828 26.9784 51.8868 28.4151 52.3487C29.8518 52.8106 31.3977 52.8068 32.8321 52.3378C34.2665 51.8687 35.516 50.9585 36.4022 49.737C37.2885 48.5155 37.7661 47.0453 37.767 45.5362V12H46.2134C46.2086 12.7144 46.2697 13.4276 46.3958 14.1308C46.6895 15.6982 47.2998 17.1892 48.1893 18.5128C49.0788 19.8363 50.2289 20.9646 51.5692 21.8286C53.4771 23.0887 55.7136 23.7596 58 23.7578V32.1467Z" fill="white"/>
</g>
<defs>
<clipPath id="clip0_2_21">
<rect width="43" height="49.1429" fill="white" transform="translate(15 12)"/>
</clipPath>
</defs>
</svg>
