<svg width="49" height="56" viewBox="0 0 49 56" fill="none" xmlns="http://www.w3.org/2000/svg">
<g clip-path="url(#clip0_55_141)">
<path d="M24.5108 15.422C17.5546 15.422 11.9437 21.0329 11.9437 27.9892C11.9437 34.9454 17.5546 40.5563 24.5108 40.5563C31.4671 40.5563 37.078 34.9454 37.078 27.9892C37.078 21.0329 31.4671 15.422 24.5108 15.422ZM24.5108 36.1595C20.0155 36.1595 16.3405 32.4954 16.3405 27.9892C16.3405 23.4829 20.0046 19.8188 24.5108 19.8188C29.0171 19.8188 32.6812 23.4829 32.6812 27.9892C32.6812 32.4954 29.0062 36.1595 24.5108 36.1595ZM40.5233 14.9079C40.5233 16.5376 39.2108 17.8392 37.5921 17.8392C35.9624 17.8392 34.6608 16.5267 34.6608 14.9079C34.6608 13.2892 35.9733 11.9767 37.5921 11.9767C39.2108 11.9767 40.5233 13.2892 40.5233 14.9079ZM48.8468 17.8829C48.6608 13.9563 47.764 10.4782 44.8874 7.6126C42.0218 4.74697 38.5437 3.8501 34.6171 3.65322C30.5702 3.42354 18.4405 3.42354 14.3937 3.65322C10.478 3.83916 6.9999 4.73603 4.12334 7.60166C1.24678 10.4673 0.36084 13.9454 0.163965 17.872C-0.0657227 21.9188 -0.0657227 34.0485 0.163965 38.0954C0.349902 42.022 1.24678 45.5001 4.12334 48.3657C6.9999 51.2313 10.4671 52.1282 14.3937 52.3251C18.4405 52.5548 30.5702 52.5548 34.6171 52.3251C38.5437 52.1392 42.0218 51.2423 44.8874 48.3657C47.753 45.5001 48.6499 42.022 48.8468 38.0954C49.0765 34.0485 49.0765 21.9298 48.8468 17.8829ZM43.6187 42.4376C42.7655 44.5813 41.114 46.2329 38.9593 47.097C35.7327 48.3767 28.0765 48.0813 24.5108 48.0813C20.9452 48.0813 13.278 48.3657 10.0624 47.097C7.91865 46.2438 6.26709 44.5923 5.40303 42.4376C4.12334 39.211 4.41865 31.5548 4.41865 27.9892C4.41865 24.4235 4.13428 16.7563 5.40303 13.5407C6.25615 11.397 7.90771 9.74541 10.0624 8.88135C13.289 7.60166 20.9452 7.89697 24.5108 7.89697C28.0765 7.89697 35.7437 7.6126 38.9593 8.88135C41.103 9.73447 42.7546 11.386 43.6187 13.5407C44.8983 16.7673 44.603 24.4235 44.603 27.9892C44.603 31.5548 44.8983 39.222 43.6187 42.4376Z" fill="#FFFEFA"/>
</g>
<defs>
<clipPath id="clip0_55_141">
<rect width="49" height="56" fill="white"/>
</clipPath>
</defs>
</svg>
