<svg width="46" height="53" viewBox="0 0 46 53" fill="none" xmlns="http://www.w3.org/2000/svg">
<path d="M10.2987 46H0.759821V15.2888H10.2987V46ZM5.52411 11.0996C2.47455 11.0996 0 8.57366 0 5.52411C0 4.05902 0.582002 2.65394 1.61797 1.61797C2.65394 0.582002 4.05902 0 5.52411 0C6.98919 0 8.39427 0.582002 9.43024 1.61797C10.4662 2.65394 11.0482 4.05902 11.0482 5.52411C11.0482 8.57366 8.57366 11.0996 5.52411 11.0996ZM45.9897 46H36.4714V31.05C36.4714 27.4871 36.3996 22.9179 31.5121 22.9179C26.5527 22.9179 25.7929 26.7888 25.7929 30.7933V46H16.2643V15.2888H25.4129V19.4781H25.5464C26.8196 17.0652 29.9308 14.5188 34.5719 14.5188C44.2237 14.5188 46 20.8746 46 29.1299V46H45.9897Z" fill="#FFFEFA"/>
</svg>
