<svg width="73" height="73" viewBox="0 0 73 73" fill="none" xmlns="http://www.w3.org/2000/svg">
<rect width="73" height="73" rx="11" fill="#DD6B12"/>
<path d="M24.2987 57H14.7598V26.2888H24.2987V57ZM19.5241 22.0996C16.4746 22.0996 14 19.5737 14 16.5241C14 15.059 14.582 13.6539 15.618 12.618C16.6539 11.582 18.059 11 19.5241 11C20.9892 11 22.3943 11.582 23.4302 12.618C24.4662 13.6539 25.0482 15.059 25.0482 16.5241C25.0482 19.5737 22.5737 22.0996 19.5241 22.0996ZM59.9897 57H50.4714V42.05C50.4714 38.4871 50.3996 33.9179 45.5121 33.9179C40.5527 33.9179 39.7929 37.7888 39.7929 41.7933V57H30.2643V26.2888H39.4129V30.4781H39.5464C40.8196 28.0652 43.9308 25.5187 48.5719 25.5187C58.2237 25.5187 60 31.8746 60 40.1299V57H59.9897Z" fill="white"/>
</svg>
