<svg width="73" height="73" viewBox="0 0 73 73" fill="none" xmlns="http://www.w3.org/2000/svg">
<rect width="73" height="73" rx="11" fill="#DD6B12"/>
<g clip-path="url(#clip0_2_7)">
<path d="M36.5109 24.422C29.5547 24.422 23.9437 30.033 23.9437 36.9892C23.9437 43.9455 29.5547 49.5564 36.5109 49.5564C43.4672 49.5564 49.0781 43.9455 49.0781 36.9892C49.0781 30.033 43.4672 24.422 36.5109 24.422ZM36.5109 45.1595C32.0156 45.1595 28.3406 41.4955 28.3406 36.9892C28.3406 32.483 32.0047 28.8189 36.5109 28.8189C41.0172 28.8189 44.6812 32.483 44.6812 36.9892C44.6812 41.4955 41.0062 45.1595 36.5109 45.1595ZM52.5234 23.908C52.5234 25.5377 51.2109 26.8392 49.5922 26.8392C47.9625 26.8392 46.6609 25.5267 46.6609 23.908C46.6609 22.2892 47.9734 20.9767 49.5922 20.9767C51.2109 20.9767 52.5234 22.2892 52.5234 23.908ZM60.8469 26.883C60.6609 22.9564 59.7641 19.4783 56.8875 16.6127C54.0219 13.747 50.5437 12.8502 46.6172 12.6533C42.5703 12.4236 30.4406 12.4236 26.3937 12.6533C22.4781 12.8392 19 13.7361 16.1234 16.6017C13.2469 19.4674 12.3609 22.9455 12.1641 26.872C11.9344 30.9189 11.9344 43.0486 12.1641 47.0955C12.35 51.022 13.2469 54.5002 16.1234 57.3658C19 60.2314 22.4672 61.1283 26.3937 61.3252C30.4406 61.5548 42.5703 61.5548 46.6172 61.3252C50.5437 61.1392 54.0219 60.2423 56.8875 57.3658C59.7531 54.5002 60.65 51.022 60.8469 47.0955C61.0766 43.0486 61.0766 30.9299 60.8469 26.883ZM55.6187 51.4377C54.7656 53.5814 53.1141 55.233 50.9594 56.097C47.7328 57.3767 40.0766 57.0814 36.5109 57.0814C32.9453 57.0814 25.2781 57.3658 22.0625 56.097C19.9187 55.2439 18.2672 53.5923 17.4031 51.4377C16.1234 48.2111 16.4187 40.5548 16.4187 36.9892C16.4187 33.4236 16.1344 25.7564 17.4031 22.5408C18.2562 20.397 19.9078 18.7455 22.0625 17.8814C25.2891 16.6017 32.9453 16.897 36.5109 16.897C40.0766 16.897 47.7437 16.6127 50.9594 17.8814C53.1031 18.7345 54.7547 20.3861 55.6187 22.5408C56.8984 25.7673 56.6031 33.4236 56.6031 36.9892C56.6031 40.5548 56.8984 48.222 55.6187 51.4377Z" fill="white"/>
</g>
<defs>
<clipPath id="clip0_2_7">
<rect width="49" height="56" fill="white" transform="translate(12 9)"/>
</clipPath>
</defs>
</svg>
