<svg width="269" height="116" viewBox="0 0 269 116" fill="none" xmlns="http://www.w3.org/2000/svg">
<g clip-path="url(#clip0_16_75)">
<path d="M85.783 89.5421C85.1703 89.5421 84.4954 89.8744 83.9035 89.9886C82.6989 90.2274 81.4736 90.3001 80.2691 90.0924C77.808 89.6771 75.6897 87.9533 74.3917 85.8869C72.834 83.4258 72.2525 80.4871 71.8995 77.6004C71.2141 71.9203 71.3491 66.1467 72.3044 60.5081C72.8029 57.6214 73.7271 54.6307 74.807 51.9309C75.8143 49.4179 77.673 47.2269 80.0302 45.8873C81.972 44.7762 84.2565 44.1947 85.9388 42.7098C89.7913 39.3246 87.8391 33.9664 86.0011 30.0723C84.2773 26.4379 81.7436 23.1877 78.3791 20.9343C77.8288 20.5605 77.268 20.1971 76.6658 19.9063C72.481 17.6634 67.6628 16.8845 62.9484 16.8845H35.9601C27.6528 16.8845 27.6528 22.4193 27.6528 27.954V104.08C27.6528 109.615 27.6528 115.149 33.1979 115.149H42.8759C51.1832 115.149 51.1832 109.615 51.1832 104.08V84.4227C51.1832 83.322 51.1832 81.0998 52.2943 81.0998C53.125 81.0998 57.2787 83.322 60.6016 96.1879C63.2287 106.427 69.7292 115.845 82.4601 115.845C89.6667 115.845 90.7674 113.353 90.7674 110.58C90.7674 106.427 90.9024 102.699 90.9024 99.6458C90.9024 93.2803 90.217 89.5421 85.783 89.5421ZM78.3584 23.2396C79.8641 23.3331 80.9959 24.7661 80.8817 26.4483C80.7779 28.1305 79.4695 29.4181 77.9638 29.3247C76.4685 29.2208 75.3262 27.7775 75.4301 26.0952C75.5443 24.4234 76.8527 23.1462 78.3584 23.2396ZM57.4137 61.7231C51.8789 61.7231 51.0482 60.8923 51.0482 56.3337C51.0482 54.6723 51.1832 52.1801 51.1832 49.4075C51.1832 46.635 51.0482 43.3225 51.0482 41.5156C51.0482 36.5416 51.8789 35.5655 57.4137 35.5655C63.6441 35.5655 65.0252 43.1771 65.0252 49.4075C65.0252 55.638 63.6441 61.7231 57.4137 61.7231ZM68.6285 26.6975C68.0677 25.1087 68.7635 23.4265 70.1861 22.9177C71.6087 22.4089 73.2183 23.2915 73.779 24.8803C74.3397 26.4587 73.644 28.1617 72.211 28.6601C70.7988 29.1585 69.1788 28.2759 68.6285 26.6975Z" fill="#DD6C26"/>
<path d="M148.025 110.123C148.025 114.9 144.806 115.315 138.887 115.315H133.384C126.945 115.315 130.164 99.7393 126.011 99.7393H117.704C113.55 99.7393 115.938 115.315 109.708 115.315H104.827C99.4276 115.315 96.2085 114.9 96.2085 110.123C96.2085 103.893 98.7007 98.3893 106.8 49.8956C107.631 44.7035 109.708 41.5883 113.861 41.5883H129.853C134.007 41.5883 136.083 44.7035 137.122 49.8956C144.183 92.4704 148.025 103.893 148.025 110.123ZM117.807 82.5016C117.807 84.1631 118.534 84.1631 121.857 84.1631C125.18 84.1631 125.907 84.1631 125.907 82.6055C125.907 82.1901 125.907 81.6709 125.803 80.944C124.557 70.7676 124.142 58.2029 121.857 58.2029C119.573 58.2029 118.95 70.6638 117.911 80.944C117.807 81.5671 117.807 82.0863 117.807 82.5016Z" fill="#DD6C26"/>
<path d="M170.04 107.735C169.832 111.681 169.624 115.315 163.809 115.315H158.617C152.387 115.315 152.387 111.162 152.387 107.008V59.5528C152.387 56.9568 151.867 56.3337 149.687 56.3337C148.96 56.3337 147.921 56.4376 146.675 56.4376C144.079 56.4376 142.002 56.0222 142.002 53.53V44.7035C142.002 42.6267 144.287 41.5883 146.883 41.5883H175.543C178.139 41.5883 180.424 42.6267 180.424 44.7035V53.53C180.424 56.0222 178.347 56.4376 175.751 56.4376C175.024 56.4376 174.089 56.3337 172.843 56.3337C170.247 56.3337 170.04 56.9568 170.04 59.5528V107.735Z" fill="#DD6C26"/>
<path d="M205.138 41.0691C227.464 41.0691 227.464 57.5798 227.464 78.4519C227.464 99.3239 227.464 115.835 205.138 115.835C182.812 115.835 182.812 99.3239 182.812 78.4519C182.812 57.5798 182.812 41.0691 205.138 41.0691ZM200.465 65.7833V91.8473C200.465 96.7279 200.776 101.297 205.138 101.297C209.499 101.297 210.226 96.001 210.226 88.4206C210.226 85.4092 210.122 81.9824 210.122 78.4519C210.122 74.9213 210.226 71.806 210.226 69.0023C210.226 61.5258 209.603 56.6453 205.138 56.6453C200.673 56.6453 200.465 60.695 200.465 65.7833Z" fill="#DD6C26"/>
<path d="M252.385 41.0691C261.004 41.0691 266.819 42.6267 266.819 45.5343V53.53C266.819 54.6723 266.404 56.6453 262.873 56.6453H262.042C260.381 56.6453 256.643 55.503 253.631 55.503C251.139 55.503 249.166 56.3337 249.166 59.6566C249.166 62.9796 250.101 64.5372 254.151 67.8601C266.508 78.0365 269 85.3054 269 93.7165C269 98.4932 268.896 102.854 266.196 106.904C262.769 112.096 257.37 114.069 255.085 114.692C252.281 115.419 248.335 115.835 245.116 115.835C237.432 115.835 229.956 114.381 229.956 110.227V102.231C229.956 100.985 230.994 99.7393 233.798 99.7393C236.601 99.7393 238.782 101.297 244.701 101.297C247.609 101.297 251.554 99.0124 251.554 95.7933C251.554 93.405 251.451 91.6397 245.116 85.4092C235.459 75.9597 230.89 71.5984 230.89 63.0834C230.89 42.6267 244.078 41.0691 252.385 41.0691Z" fill="#DD6C26"/>
<path d="M24.1015 34.226C32.4344 34.226 39.1896 27.4708 39.1896 19.1379C39.1896 10.805 32.4344 4.0498 24.1015 4.0498C15.7686 4.0498 9.01343 10.805 9.01343 19.1379C9.01343 27.4708 15.7686 34.226 24.1015 34.226Z" fill="#DD6C26"/>
<path d="M58.2237 24.7765C65.0655 24.7765 70.6119 19.2301 70.6119 12.3882C70.6119 5.54641 65.0655 7.62939e-06 58.2237 7.62939e-06C51.3818 7.62939e-06 45.8354 5.54641 45.8354 12.3882C45.8354 19.2301 51.3818 24.7765 58.2237 24.7765Z" fill="#DD6C26"/>
<path d="M102.636 22.6685L82.7197 32.2945C82.1798 32.5541 81.9202 33.2914 82.1382 33.9456L82.3978 34.7244C82.6159 35.3682 83.2286 35.6901 83.7582 35.4305L103.675 25.8045C104.391 25.4618 104.734 24.4753 104.454 23.6134C104.173 22.7516 103.353 22.3258 102.636 22.6685Z" fill="#DD6C26"/>
<path d="M111.753 29.4182L86.3747 31.2146C85.4712 31.2769 84.7755 32.2322 84.8274 33.3226L84.8482 33.686C84.9001 34.7867 85.6893 35.6278 86.5927 35.5655L111.971 33.7691C112.875 33.7068 113.571 32.7515 113.519 31.6611L113.498 31.2977C113.446 30.197 112.657 29.3559 111.753 29.4182Z" fill="#DD6C26"/>
<path d="M79.916 47.7772L80.6222 53.125C80.6845 53.5923 81.2971 53.8415 81.8682 53.6339L83.3116 53.1146C83.7478 52.9589 83.997 52.5851 83.8931 52.2424L82.4186 46.988C82.2836 46.4896 81.5048 46.3131 80.9648 46.6661L80.2795 47.1023C80.0095 47.2684 79.8641 47.528 79.8953 47.7876L79.916 47.7772Z" fill="#DD6C26"/>
<path d="M85.3365 45.4512L88.1298 50.2279C88.3687 50.6432 88.026 51.1624 87.4237 51.2767L85.8973 51.5778C85.4404 51.6713 85.0042 51.4843 84.8692 51.1521L82.7613 46.0742C82.564 45.5966 83.0936 45.0566 83.7581 45.067H84.5889C84.9212 45.0877 85.2015 45.2227 85.3365 45.4512Z" fill="#DD6C26"/>
<path d="M32.3256 88.9709L31.5156 110.154C31.5156 110.154 8.64986 95.6583 0.0206772 33.8002C-0.197389 32.2738 1.17331 31.5573 1.54714 33.0007C7.22724 54.5269 19.9062 95.6998 32.3152 88.9709H32.3256Z" fill="#DD6C26"/>
</g>
<defs>
<clipPath id="clip0_16_75">
<rect width="269" height="115.845" fill="white"/>
</clipPath>
</defs>
</svg>
