<svg width="152" height="155" viewBox="0 0 152 155" fill="none" xmlns="http://www.w3.org/2000/svg">
<g clip-path="url(#clip0_55_122)">
<path d="M114.777 119.807C113.957 119.807 113.054 120.251 112.262 120.404C110.651 120.724 109.011 120.821 107.4 120.543C104.107 119.987 101.272 117.681 99.5356 114.916C97.4515 111.623 96.6734 107.691 96.201 103.829C95.284 96.2288 95.4647 88.5038 96.7429 80.9594C97.4098 77.097 98.6464 73.0955 100.091 69.4831C101.439 66.1208 103.926 63.1892 107.08 61.3969C109.678 59.9102 112.735 59.1322 114.986 57.1454C120.14 52.616 117.528 45.4467 115.069 40.2365C112.763 35.3737 109.372 31.0249 104.871 28.0099C104.134 27.5097 103.384 27.0235 102.578 26.6344C96.9791 23.6333 90.5323 22.5913 84.2245 22.5913H48.1144C36.9993 22.5913 36.9993 29.9967 36.9993 37.4022V139.258C36.9993 146.664 36.9993 154.069 44.4186 154.069H57.3677C68.4828 154.069 68.4828 146.664 68.4828 139.258V112.957C68.4828 111.484 68.4828 108.511 69.9694 108.511C71.0809 108.511 76.6385 111.484 81.0845 128.699C84.5997 142.398 93.2972 155 110.331 155C119.973 155 121.446 151.665 121.446 147.956C121.446 142.398 121.627 137.41 121.627 133.325C121.627 124.808 120.71 119.807 114.777 119.807ZM104.843 31.0944C106.858 31.2194 108.372 33.1368 108.219 35.3876C108.08 37.6384 106.33 39.3612 104.315 39.2362C102.314 39.0972 100.786 37.166 100.925 34.9152C101.078 32.6783 102.828 30.9693 104.843 31.0944ZM76.8191 82.585C69.4137 82.585 68.3022 81.4735 68.3022 75.3741C68.3022 73.1511 68.4828 69.8166 68.4828 66.1069C68.4828 62.3972 68.3022 57.9651 68.3022 55.5476C68.3022 48.8924 69.4137 47.5864 76.8191 47.5864C85.1554 47.5864 87.0033 57.7706 87.0033 66.1069C87.0033 74.4432 85.1554 82.585 76.8191 82.585ZM91.8245 35.721C91.0742 33.5953 92.0051 31.3444 93.9086 30.6636C95.812 29.9828 97.9656 31.1638 98.7158 33.2896C99.4661 35.4015 98.5352 37.68 96.6179 38.347C94.7283 39.0139 92.5608 37.8329 91.8245 35.721Z" fill="#FFFEFA"/>
<path d="M32.2476 45.794C43.397 45.794 52.4354 36.7557 52.4354 25.6062C52.4354 14.4568 43.397 5.41846 32.2476 5.41846C21.0982 5.41846 12.0598 14.4568 12.0598 25.6062C12.0598 36.7557 21.0982 45.794 32.2476 45.794Z" fill="#FFFEFA"/>
<path d="M77.9025 33.1508C87.0569 33.1508 94.4779 25.7297 94.4779 16.5754C94.4779 7.42105 87.0569 0 77.9025 0C68.7482 0 61.3271 7.42105 61.3271 16.5754C61.3271 25.7297 68.7482 33.1508 77.9025 33.1508Z" fill="#FFFEFA"/>
<path d="M137.327 30.3301L110.678 43.2097C109.956 43.557 109.609 44.5435 109.9 45.4188L110.248 46.4608C110.54 47.3223 111.359 47.753 112.068 47.4056L138.716 34.526C139.675 34.0675 140.133 32.7476 139.758 31.5944C139.383 30.4412 138.286 29.8716 137.327 30.3301Z" fill="#FFFEFA"/>
<path d="M149.525 39.3608L115.569 41.7644C114.36 41.8478 113.429 43.126 113.499 44.5849L113.526 45.0712C113.596 46.5439 114.652 47.6693 115.86 47.586L149.817 45.1823C151.026 45.099 151.957 43.8207 151.887 42.3619L151.859 41.8756C151.79 40.4028 150.734 39.2774 149.525 39.3608Z" fill="#FFFEFA"/>
<path d="M106.927 63.9252L107.872 71.0806C107.956 71.7058 108.775 72.0392 109.539 71.7614L111.471 71.0667C112.054 70.8583 112.388 70.3581 112.249 69.8996L110.276 62.8693C110.095 62.2024 109.053 61.9662 108.331 62.4386L107.414 63.0221C107.052 63.2444 106.858 63.5918 106.9 63.9391L106.927 63.9252Z" fill="#FFFEFA"/>
<path d="M114.18 60.8141L117.917 67.2053C118.237 67.761 117.778 68.4557 116.972 68.6085L114.93 69.0115C114.319 69.1365 113.735 68.8864 113.555 68.4418L110.734 61.6477C110.47 61.0086 111.179 60.2861 112.068 60.3H113.179C113.624 60.3278 113.999 60.5084 114.18 60.8141Z" fill="#FFFEFA"/>
<path d="M43.2517 119.043L42.1679 147.386C42.1679 147.386 11.5736 127.99 0.0278412 45.2246C-0.26393 43.1822 1.57006 42.2235 2.07024 44.1548C9.67018 72.9568 26.6346 128.046 43.2378 119.043H43.2517Z" fill="#FFFEFA"/>
</g>
<defs>
<clipPath id="clip0_55_122">
<rect width="151.888" height="155" fill="white"/>
</clipPath>
</defs>
</svg>
