<svg width="47" height="47" viewBox="0 0 47 47" fill="none" xmlns="http://www.w3.org/2000/svg">
<path d="M29.6331 41.1267L18.1591 37.1108L9.26671 40.553C8.62927 40.8079 8.03963 40.7365 7.4978 40.3388C6.95597 39.941 6.68506 39.4068 6.68506 38.7362L6.68506 11.9635C6.68506 11.5492 6.8049 11.1826 7.04458 10.8639C7.28426 10.5452 7.61063 10.3062 8.02369 10.1468L18.1591 6.70459L29.6331 10.7205L38.5255 7.27829C39.1629 7.02331 39.7526 7.09534 40.2944 7.49439C40.8362 7.89343 41.1071 8.42697 41.1071 9.09501V35.8677C41.1071 36.2821 40.9879 36.6486 40.7495 36.9673C40.5111 37.2861 40.1841 37.5251 39.7685 37.6845L29.6331 41.1267ZM27.7208 36.4414V14.0671L20.0714 11.3898V33.7642L27.7208 36.4414ZM31.5454 36.4414L37.2825 34.5291V11.8679L31.5454 14.0671V36.4414ZM10.5097 35.9634L16.2467 33.7642V11.3898L10.5097 13.3022V35.9634Z" fill="#FFFEFA"/>
</svg>
