<svg width="35" height="35" viewBox="0 0 35 35" fill="none" xmlns="http://www.w3.org/2000/svg">
<path d="M27.9829 14.4956C27.9829 17.5026 27.0067 20.2804 25.3624 22.534L33.6563 30.8345C34.4752 31.6534 34.4752 32.9833 33.6563 33.8022C32.8374 34.6212 31.5075 34.6212 30.6886 33.8022L22.3946 25.5018C20.141 27.1527 17.3632 28.1223 14.3562 28.1223C6.82875 28.1223 0.729492 22.023 0.729492 14.4956C0.729492 6.96815 6.82875 0.868896 14.3562 0.868896C21.8836 0.868896 27.9829 6.96815 27.9829 14.4956ZM14.3562 23.9294C15.5951 23.9294 16.8218 23.6854 17.9664 23.2113C19.1109 22.7372 20.1509 22.0423 21.0269 21.1663C21.9029 20.2903 22.5978 19.2503 23.0719 18.1058C23.546 16.9612 23.79 15.7345 23.79 14.4956C23.79 13.2567 23.546 12.03 23.0719 10.8854C22.5978 9.74084 21.9029 8.70085 21.0269 7.82484C20.1509 6.94882 19.1109 6.25393 17.9664 5.77983C16.8218 5.30574 15.5951 5.06172 14.3562 5.06172C13.1173 5.06172 11.8906 5.30574 10.746 5.77983C9.60143 6.25393 8.56145 6.94882 7.68543 7.82484C6.80942 8.70085 6.11453 9.74084 5.64043 10.8854C5.16633 12.03 4.92232 13.2567 4.92232 14.4956C4.92232 15.7345 5.16633 16.9612 5.64043 18.1058C6.11453 19.2503 6.80942 20.2903 7.68543 21.1663C8.56145 22.0423 9.60143 22.7372 10.746 23.2113C11.8906 23.6854 13.1173 23.9294 14.3562 23.9294Z" fill="#FFFEFA"/>
</svg>
