<svg width="46" height="45" viewBox="0 0 46 45" fill="none" xmlns="http://www.w3.org/2000/svg">
<path d="M15.7655 26.165H30.661C32.6497 26.165 34.5575 26.9551 35.9637 28.3613C37.3699 29.7675 38.1591 31.6755 38.1591 33.6641C38.1589 34.6649 37.7613 35.6243 37.0536 36.332C36.3459 37.0397 35.3865 37.4374 34.3856 37.4375H12.0409C11.0399 37.4375 10.0798 37.0398 9.37195 36.332C8.66442 35.6243 8.2666 34.6648 8.26648 33.6641L8.27625 33.292C8.36202 31.5621 9.04429 29.9148 10.2069 28.6309L10.4628 28.3613C11.869 26.9551 13.7768 26.165 15.7655 26.165ZM23.2128 7.54492C24.6141 7.54492 25.9621 8.06683 26.996 9.00293L27.1981 9.19629C28.2551 10.2533 28.8495 11.6868 28.8495 13.1816C28.8494 14.5831 28.3277 15.9309 27.3915 16.9648L27.1981 17.167C26.1411 18.2239 24.7075 18.8174 23.2128 18.8174C21.8115 18.8173 20.4644 18.2955 19.4305 17.3594L19.2274 17.167C18.1705 16.11 17.5771 14.6764 17.577 13.1816C17.577 11.7802 18.0988 10.4324 19.035 9.39844L19.2274 9.19629C20.2184 8.20535 21.5404 7.62089 22.9335 7.55176L23.2128 7.54492Z" stroke="#FFFEFA" stroke-width="3.62338"/>
</svg>
